<mxfile host="app.diagrams.net" agent="Mozilla/5.0 (Windows NT 10.0; Win64; x64) AppleWebKit/537.36 (KHTML, like Gecko) Chrome/130.0.0.0 Safari/537.36" version="24.8.3">
  <diagram name="Page-1" id="vCg_MlWZA_7JhtkfMOp2">
    <mxGraphModel dx="1434" dy="744" grid="1" gridSize="10" guides="1" tooltips="1" connect="1" arrows="1" fold="1" page="1" pageScale="1" pageWidth="850" pageHeight="1100" math="0" shadow="0">
      <root>
        <mxCell id="0" />
        <mxCell id="1" parent="0" />
        <mxCell id="FswJCTiF_LaIAhzLPm2B-1" value="" style="whiteSpace=wrap;html=1;aspect=fixed;" parent="1" vertex="1">
          <mxGeometry x="153" y="278" width="545" height="545" as="geometry" />
        </mxCell>
        <mxCell id="FswJCTiF_LaIAhzLPm2B-22" value="" style="rounded=1;whiteSpace=wrap;html=1;rotation=0;" parent="1" vertex="1">
          <mxGeometry x="200" y="590" width="220" height="220" as="geometry" />
        </mxCell>
        <mxCell id="FswJCTiF_LaIAhzLPm2B-2" value="" style="rounded=0;whiteSpace=wrap;html=1;" parent="1" vertex="1">
          <mxGeometry x="153" y="278" width="545" height="60" as="geometry" />
        </mxCell>
        <mxCell id="FswJCTiF_LaIAhzLPm2B-3" value="Home" style="text;html=1;align=center;verticalAlign=middle;whiteSpace=wrap;rounded=0;" parent="1" vertex="1">
          <mxGeometry x="330" y="308" width="60" height="30" as="geometry" />
        </mxCell>
        <mxCell id="FswJCTiF_LaIAhzLPm2B-4" value="Transactions" style="text;html=1;align=center;verticalAlign=middle;whiteSpace=wrap;rounded=0;" parent="1" vertex="1">
          <mxGeometry x="395" y="308" width="60" height="30" as="geometry" />
        </mxCell>
        <mxCell id="FswJCTiF_LaIAhzLPm2B-5" value="Items" style="text;html=1;align=center;verticalAlign=middle;whiteSpace=wrap;rounded=0;" parent="1" vertex="1">
          <mxGeometry x="460" y="308" width="60" height="30" as="geometry" />
        </mxCell>
        <mxCell id="FswJCTiF_LaIAhzLPm2B-6" value="Vehicles" style="text;html=1;align=center;verticalAlign=middle;whiteSpace=wrap;rounded=0;" parent="1" vertex="1">
          <mxGeometry x="520" y="308" width="60" height="30" as="geometry" />
        </mxCell>
        <mxCell id="FswJCTiF_LaIAhzLPm2B-7" value="" style="rounded=1;whiteSpace=wrap;html=1;" parent="1" vertex="1">
          <mxGeometry x="200" y="370" width="220" height="210" as="geometry" />
        </mxCell>
        <mxCell id="FswJCTiF_LaIAhzLPm2B-8" value="" style="rounded=1;whiteSpace=wrap;html=1;rotation=0;" parent="1" vertex="1">
          <mxGeometry x="200" y="440" width="220" height="140" as="geometry" />
        </mxCell>
        <mxCell id="FswJCTiF_LaIAhzLPm2B-11" value="Total Funds" style="text;html=1;align=center;verticalAlign=middle;whiteSpace=wrap;rounded=0;" parent="1" vertex="1">
          <mxGeometry x="255" y="380" width="90" height="30" as="geometry" />
        </mxCell>
        <mxCell id="FswJCTiF_LaIAhzLPm2B-12" value="000000000 GP" style="text;html=1;align=center;verticalAlign=middle;whiteSpace=wrap;rounded=0;" parent="1" vertex="1">
          <mxGeometry x="250" y="410" width="100" height="30" as="geometry" />
        </mxCell>
        <mxCell id="FswJCTiF_LaIAhzLPm2B-15" value="Party" style="text;html=1;align=center;verticalAlign=middle;whiteSpace=wrap;rounded=0;" parent="1" vertex="1">
          <mxGeometry x="270" y="440" width="60" height="30" as="geometry" />
        </mxCell>
        <mxCell id="FswJCTiF_LaIAhzLPm2B-16" value="Member 1&lt;br&gt;Gold Amount" style="text;html=1;align=center;verticalAlign=middle;whiteSpace=wrap;rounded=0;" parent="1" vertex="1">
          <mxGeometry x="210" y="470" width="80" height="30" as="geometry" />
        </mxCell>
        <mxCell id="FswJCTiF_LaIAhzLPm2B-17" value="Member&amp;nbsp; 2&lt;br&gt;Gold Amount" style="text;html=1;align=center;verticalAlign=middle;whiteSpace=wrap;rounded=0;" parent="1" vertex="1">
          <mxGeometry x="210" y="510" width="80" height="30" as="geometry" />
        </mxCell>
        <mxCell id="FswJCTiF_LaIAhzLPm2B-18" value="Member 1&lt;br&gt;Gold Amount" style="text;html=1;align=center;verticalAlign=middle;whiteSpace=wrap;rounded=0;" parent="1" vertex="1">
          <mxGeometry x="310" y="470" width="80" height="30" as="geometry" />
        </mxCell>
        <mxCell id="FswJCTiF_LaIAhzLPm2B-19" value="Member&amp;nbsp; 2&lt;br&gt;Gold Amount" style="text;html=1;align=center;verticalAlign=middle;whiteSpace=wrap;rounded=0;" parent="1" vertex="1">
          <mxGeometry x="310" y="510" width="80" height="30" as="geometry" />
        </mxCell>
        <mxCell id="FswJCTiF_LaIAhzLPm2B-21" value="Item Storage" style="text;html=1;align=center;verticalAlign=middle;whiteSpace=wrap;rounded=0;" parent="1" vertex="1">
          <mxGeometry x="261.25" y="600" width="97.5" height="30" as="geometry" />
        </mxCell>
        <mxCell id="FswJCTiF_LaIAhzLPm2B-23" value="" style="rounded=1;whiteSpace=wrap;html=1;rotation=0;" parent="1" vertex="1">
          <mxGeometry x="200" y="640" width="110" height="170" as="geometry" />
        </mxCell>
        <mxCell id="FswJCTiF_LaIAhzLPm2B-24" value="" style="rounded=1;whiteSpace=wrap;html=1;rotation=0;" parent="1" vertex="1">
          <mxGeometry x="310" y="640" width="110" height="170" as="geometry" />
        </mxCell>
        <mxCell id="FswJCTiF_LaIAhzLPm2B-26" value="Magic" style="text;html=1;align=center;verticalAlign=middle;whiteSpace=wrap;rounded=0;" parent="1" vertex="1">
          <mxGeometry x="230" y="640" width="60" height="30" as="geometry" />
        </mxCell>
        <mxCell id="FswJCTiF_LaIAhzLPm2B-27" value="Consumable" style="text;html=1;align=center;verticalAlign=middle;whiteSpace=wrap;rounded=0;" parent="1" vertex="1">
          <mxGeometry x="335" y="640" width="60" height="30" as="geometry" />
        </mxCell>
        <mxCell id="FswJCTiF_LaIAhzLPm2B-29" value="" style="rounded=1;whiteSpace=wrap;html=1;" parent="1" vertex="1">
          <mxGeometry x="460" y="370" width="220" height="210" as="geometry" />
        </mxCell>
        <mxCell id="FswJCTiF_LaIAhzLPm2B-30" value="" style="rounded=1;whiteSpace=wrap;html=1;" parent="1" vertex="1">
          <mxGeometry x="460" y="595" width="220" height="210" as="geometry" />
        </mxCell>
        <mxCell id="FswJCTiF_LaIAhzLPm2B-31" value="Transactions" style="text;html=1;align=center;verticalAlign=middle;whiteSpace=wrap;rounded=0;" parent="1" vertex="1">
          <mxGeometry x="540" y="370" width="60" height="30" as="geometry" />
        </mxCell>
        <mxCell id="FswJCTiF_LaIAhzLPm2B-32" value="" style="rounded=0;whiteSpace=wrap;html=1;" parent="1" vertex="1">
          <mxGeometry x="470" y="420" width="40" height="20" as="geometry" />
        </mxCell>
        <mxCell id="FswJCTiF_LaIAhzLPm2B-33" value="" style="rounded=0;whiteSpace=wrap;html=1;" parent="1" vertex="1">
          <mxGeometry x="520" y="420" width="40" height="20" as="geometry" />
        </mxCell>
        <mxCell id="FswJCTiF_LaIAhzLPm2B-34" value="" style="rounded=0;whiteSpace=wrap;html=1;" parent="1" vertex="1">
          <mxGeometry x="570" y="420" width="40" height="20" as="geometry" />
        </mxCell>
        <mxCell id="FswJCTiF_LaIAhzLPm2B-35" value="" style="rounded=0;whiteSpace=wrap;html=1;" parent="1" vertex="1">
          <mxGeometry x="620" y="420" width="40" height="20" as="geometry" />
        </mxCell>
        <mxCell id="FswJCTiF_LaIAhzLPm2B-36" value="" style="rounded=0;whiteSpace=wrap;html=1;" parent="1" vertex="1">
          <mxGeometry x="470" y="465" width="90" height="20" as="geometry" />
        </mxCell>
        <mxCell id="FswJCTiF_LaIAhzLPm2B-37" value="" style="rounded=0;whiteSpace=wrap;html=1;" parent="1" vertex="1">
          <mxGeometry x="570" y="465" width="90" height="20" as="geometry" />
        </mxCell>
        <mxCell id="FswJCTiF_LaIAhzLPm2B-38" value="" style="rounded=0;whiteSpace=wrap;html=1;" parent="1" vertex="1">
          <mxGeometry x="470" y="510" width="190" height="20" as="geometry" />
        </mxCell>
        <mxCell id="FswJCTiF_LaIAhzLPm2B-40" value="" style="rounded=1;whiteSpace=wrap;html=1;" parent="1" vertex="1">
          <mxGeometry x="480" y="535.5" width="70" height="30" as="geometry" />
        </mxCell>
        <mxCell id="FswJCTiF_LaIAhzLPm2B-42" value="" style="rounded=1;whiteSpace=wrap;html=1;" parent="1" vertex="1">
          <mxGeometry x="580" y="535.5" width="70" height="30" as="geometry" />
        </mxCell>
        <mxCell id="FswJCTiF_LaIAhzLPm2B-43" value="Platinum" style="text;html=1;align=center;verticalAlign=middle;whiteSpace=wrap;rounded=0;" parent="1" vertex="1">
          <mxGeometry x="460" y="390" width="60" height="30" as="geometry" />
        </mxCell>
        <mxCell id="FswJCTiF_LaIAhzLPm2B-44" value="Gold" style="text;html=1;align=center;verticalAlign=middle;whiteSpace=wrap;rounded=0;" parent="1" vertex="1">
          <mxGeometry x="510" y="390" width="60" height="30" as="geometry" />
        </mxCell>
        <mxCell id="FswJCTiF_LaIAhzLPm2B-45" value="Silver" style="text;html=1;align=center;verticalAlign=middle;whiteSpace=wrap;rounded=0;" parent="1" vertex="1">
          <mxGeometry x="560" y="390" width="60" height="30" as="geometry" />
        </mxCell>
        <mxCell id="FswJCTiF_LaIAhzLPm2B-46" value="Copper" style="text;html=1;align=center;verticalAlign=middle;whiteSpace=wrap;rounded=0;" parent="1" vertex="1">
          <mxGeometry x="610" y="390" width="60" height="30" as="geometry" />
        </mxCell>
        <mxCell id="FswJCTiF_LaIAhzLPm2B-50" value="Payer" style="text;html=1;align=center;verticalAlign=middle;whiteSpace=wrap;rounded=0;" parent="1" vertex="1">
          <mxGeometry x="480" y="440" width="60" height="30" as="geometry" />
        </mxCell>
        <mxCell id="FswJCTiF_LaIAhzLPm2B-51" value="Payee" style="text;html=1;align=center;verticalAlign=middle;whiteSpace=wrap;rounded=0;" parent="1" vertex="1">
          <mxGeometry x="585" y="440" width="60" height="30" as="geometry" />
        </mxCell>
        <mxCell id="FswJCTiF_LaIAhzLPm2B-52" value="Description" style="text;html=1;align=center;verticalAlign=middle;whiteSpace=wrap;rounded=0;" parent="1" vertex="1">
          <mxGeometry x="535" y="485" width="60" height="30" as="geometry" />
        </mxCell>
        <mxCell id="FswJCTiF_LaIAhzLPm2B-53" value="Deposit" style="text;html=1;align=center;verticalAlign=middle;whiteSpace=wrap;rounded=0;" parent="1" vertex="1">
          <mxGeometry x="485" y="535" width="60" height="30" as="geometry" />
        </mxCell>
        <mxCell id="FswJCTiF_LaIAhzLPm2B-54" value="Withdraw" style="text;html=1;align=center;verticalAlign=middle;whiteSpace=wrap;rounded=0;" parent="1" vertex="1">
          <mxGeometry x="585" y="535" width="60" height="30" as="geometry" />
        </mxCell>
        <mxCell id="FswJCTiF_LaIAhzLPm2B-55" value="Items" style="text;html=1;align=center;verticalAlign=middle;whiteSpace=wrap;rounded=0;" parent="1" vertex="1">
          <mxGeometry x="535" y="595" width="60" height="30" as="geometry" />
        </mxCell>
        <mxCell id="FswJCTiF_LaIAhzLPm2B-56" value="" style="rounded=0;whiteSpace=wrap;html=1;" parent="1" vertex="1">
          <mxGeometry x="470" y="640" width="90" height="20" as="geometry" />
        </mxCell>
        <mxCell id="FswJCTiF_LaIAhzLPm2B-57" value="" style="rounded=0;whiteSpace=wrap;html=1;" parent="1" vertex="1">
          <mxGeometry x="580" y="640" width="90" height="20" as="geometry" />
        </mxCell>
        <mxCell id="FswJCTiF_LaIAhzLPm2B-58" value="Name" style="text;html=1;align=center;verticalAlign=middle;whiteSpace=wrap;rounded=0;" parent="1" vertex="1">
          <mxGeometry x="485" y="610" width="60" height="30" as="geometry" />
        </mxCell>
        <mxCell id="FswJCTiF_LaIAhzLPm2B-59" value="Type" style="text;html=1;align=center;verticalAlign=middle;whiteSpace=wrap;rounded=0;" parent="1" vertex="1">
          <mxGeometry x="590" y="610" width="60" height="30" as="geometry" />
        </mxCell>
        <mxCell id="FswJCTiF_LaIAhzLPm2B-60" value="" style="rounded=0;whiteSpace=wrap;html=1;" parent="1" vertex="1">
          <mxGeometry x="470" y="690" width="90" height="20" as="geometry" />
        </mxCell>
        <mxCell id="FswJCTiF_LaIAhzLPm2B-61" value="Rarity" style="text;html=1;align=center;verticalAlign=middle;whiteSpace=wrap;rounded=0;" parent="1" vertex="1">
          <mxGeometry x="485" y="660" width="60" height="30" as="geometry" />
        </mxCell>
        <mxCell id="FswJCTiF_LaIAhzLPm2B-62" value="" style="rounded=0;whiteSpace=wrap;html=1;" parent="1" vertex="1">
          <mxGeometry x="580" y="690" width="90" height="20" as="geometry" />
        </mxCell>
        <mxCell id="FswJCTiF_LaIAhzLPm2B-63" value="Amount" style="text;html=1;align=center;verticalAlign=middle;whiteSpace=wrap;rounded=0;" parent="1" vertex="1">
          <mxGeometry x="595" y="660" width="60" height="30" as="geometry" />
        </mxCell>
        <mxCell id="FswJCTiF_LaIAhzLPm2B-64" value="" style="rounded=0;whiteSpace=wrap;html=1;" parent="1" vertex="1">
          <mxGeometry x="470" y="740" width="90" height="20" as="geometry" />
        </mxCell>
        <mxCell id="FswJCTiF_LaIAhzLPm2B-65" value="Notes" style="text;html=1;align=center;verticalAlign=middle;whiteSpace=wrap;rounded=0;" parent="1" vertex="1">
          <mxGeometry x="485" y="710" width="60" height="30" as="geometry" />
        </mxCell>
        <mxCell id="FswJCTiF_LaIAhzLPm2B-66" value="" style="rounded=0;whiteSpace=wrap;html=1;" parent="1" vertex="1">
          <mxGeometry x="580" y="740" width="90" height="20" as="geometry" />
        </mxCell>
        <mxCell id="FswJCTiF_LaIAhzLPm2B-67" value="Owner" style="text;html=1;align=center;verticalAlign=middle;whiteSpace=wrap;rounded=0;" parent="1" vertex="1">
          <mxGeometry x="595" y="710" width="60" height="30" as="geometry" />
        </mxCell>
        <mxCell id="FswJCTiF_LaIAhzLPm2B-68" value="" style="rounded=1;whiteSpace=wrap;html=1;" parent="1" vertex="1">
          <mxGeometry x="530" y="770" width="70" height="30" as="geometry" />
        </mxCell>
        <mxCell id="FswJCTiF_LaIAhzLPm2B-69" value="Store" style="text;html=1;align=center;verticalAlign=middle;whiteSpace=wrap;rounded=0;" parent="1" vertex="1">
          <mxGeometry x="535" y="770" width="60" height="30" as="geometry" />
        </mxCell>
        <mxCell id="Oj-qqzSFDpNQHxymD31w-1" value="" style="rounded=0;whiteSpace=wrap;html=1;" vertex="1" parent="1">
          <mxGeometry x="153" y="278" width="120" height="60" as="geometry" />
        </mxCell>
        <mxCell id="Oj-qqzSFDpNQHxymD31w-2" value="World Date" style="text;html=1;align=center;verticalAlign=middle;whiteSpace=wrap;rounded=0;" vertex="1" parent="1">
          <mxGeometry x="173" y="278" width="80" height="30" as="geometry" />
        </mxCell>
        <mxCell id="Oj-qqzSFDpNQHxymD31w-3" value="Spring 55, 1805" style="text;html=1;align=center;verticalAlign=middle;whiteSpace=wrap;rounded=0;" vertex="1" parent="1">
          <mxGeometry x="153" y="308" width="117" height="30" as="geometry" />
        </mxCell>
        <mxCell id="Oj-qqzSFDpNQHxymD31w-4" value="User" style="ellipse;whiteSpace=wrap;html=1;aspect=fixed;" vertex="1" parent="1">
          <mxGeometry x="640" y="278" width="58" height="58" as="geometry" />
        </mxCell>
      </root>
    </mxGraphModel>
  </diagram>
</mxfile>
